<svg width="458" height="96" viewBox="0 0 458 96" fill="none" xmlns="http://www.w3.org/2000/svg">
<path d="M18.193 67.9958C18.1786 68.0006 18.1634 68.0013 18.1487 67.9977C18.134 67.9942 18.1203 67.9866 18.1089 67.9756C18.0974 67.9646 18.0886 67.9505 18.0831 67.9346C18.0777 67.9188 18.0758 67.9016 18.0776 67.8848L22.311 31.7203C22.3135 31.6995 22.3102 31.6784 22.3014 31.6594C22.2927 31.6403 22.2788 31.6241 22.2615 31.6125C22.2441 31.6008 22.2239 31.5943 22.203 31.5935C22.1821 31.5927 22.1615 31.5977 22.1433 31.608C21.8947 31.7461 21.6383 31.8614 21.374 31.9537C20.0046 32.433 18.556 32.8078 17.0283 33.0783C13.8445 33.6412 10.7986 33.3104 7.82106 32.1871C5.25445 31.2194 3.09173 29.6892 1.33288 27.5966C-0.198136 25.7756 -0.634327 23.1022 1.22849 21.3748C2.08845 20.5773 3.11989 20.0331 4.34645 19.6137C6.11606 19.0071 8.04433 18.6818 10.1313 18.6377C12.5239 18.5869 14.8593 18.7492 17.1376 19.1245C18.2337 19.305 19.541 19.5126 21.0596 19.7473C21.4855 19.813 21.8852 19.855 22.2588 19.8733C22.664 19.892 23.2716 19.9769 23.8607 19.9307C24.2484 19.9008 24.7351 19.8613 25.3209 19.8122C26.4095 19.7211 27.7442 19.3129 28.9968 18.9223C30.2859 18.5212 31.5013 17.9837 32.6429 17.3097C33.5153 16.7955 34.4933 16.1615 35.014 15.2953C35.1234 15.1143 35.1221 14.8098 34.9046 14.6612C34.2286 14.1994 33.3935 14.5452 32.5882 14.8509C32.0737 15.0457 31.1649 15.443 29.8617 16.0429C28.7744 16.5434 27.262 17.12 25.931 17.4582C25.342 17.608 24.6958 17.628 24.0198 17.6991C23.6594 17.7374 23.2029 17.697 22.6503 17.5781C21.63 17.3584 20.8633 16.7206 20.268 15.8507C19.2639 14.3804 18.9744 12.4321 18.957 10.6061C18.9545 10.2925 18.9748 9.96046 19.0179 9.61016C19.0713 9.17457 19.0688 8.77392 19.1496 8.28716C19.5091 6.14375 20.0588 4.12682 20.7987 2.23635C21.2348 1.1218 21.9854 -0.0801294 23.3549 0.0771318C24.6001 0.219416 25.3768 1.70591 25.987 2.82296C27.0391 4.74671 28.3452 6.68585 29.9052 8.64038C30.7751 9.72873 31.6496 10.6336 32.5286 11.355C33.1069 11.8293 33.56 12.1763 33.8881 12.3959C34.4945 12.8003 35.6739 13.4081 36.4468 13.3045C37.9654 13.1007 39.4674 12.916 40.9529 12.7504C42.9835 12.5257 45.157 12.4983 47.415 12.5033C50.3643 12.5116 53.2623 12.7296 56.109 13.1573C56.8165 13.2638 57.5008 13.1864 58.1619 12.9251C59.0832 12.5598 59.9034 12.0831 60.6225 11.4948C61.5495 10.7351 62.3167 9.9979 62.924 9.28315C64.2156 7.76379 65.3936 6.13876 66.4582 4.40806C67.0547 3.44036 67.5829 2.5671 68.0427 1.78828C68.6342 0.788551 69.4966 -0.261105 70.8214 0.0584101C72.1424 0.376677 72.8184 2.36366 73.185 3.48695C73.9083 5.70775 74.3225 7.88611 74.4277 10.022C74.5321 12.1575 74.2065 14.3143 72.9004 16.0217C72.1722 16.9736 71.258 17.4994 70.1578 17.5993C68.29 17.7678 66.288 17.1375 64.5482 16.3524C63.1522 15.7234 61.9729 15.2137 61.0102 14.8235C60.2447 14.514 59.6602 14.3384 59.2567 14.2968C59.1432 14.2851 58.8827 14.3434 58.4751 14.4715C58.4545 14.4779 58.4361 14.4899 58.4219 14.5062C58.4076 14.5225 58.3981 14.5424 58.3943 14.5639C58.3061 15.0756 58.5037 15.4588 58.8678 15.8095C59.4659 16.3886 60.173 16.9032 60.9891 17.3534C63.3941 18.6805 65.9636 19.5072 68.6976 19.8334C69.2734 19.9024 69.739 19.9257 70.0944 19.9033C70.8263 19.8558 71.3346 19.8509 72.0392 19.7697C73.127 19.6441 74.1875 19.4893 75.2206 19.3054C76.6422 19.0521 78.3522 18.8698 79.3364 18.7837C83.1826 18.4442 86.8163 18.5715 90.2151 19.8983C91.1985 20.2819 92.0593 20.8082 92.7974 21.4771C94.3782 22.9087 94.3036 25.2851 93.1379 26.97C92.3459 28.115 91.3708 29.1214 90.2126 29.9892C88.7321 31.0984 87.0772 31.94 85.248 32.5141C83.7629 32.9809 82.4084 33.2917 81.0029 33.3529C78.9288 33.4427 76.8473 33.2206 74.8502 32.6439C74.1212 32.4334 73.7355 32.324 73.6933 32.3157C73.0794 32.1896 72.3872 31.8851 71.7149 31.6991C71.7038 31.6962 71.6923 31.696 71.6811 31.6985C71.67 31.701 71.6597 31.7062 71.6511 31.7136C71.6425 31.721 71.6359 31.7304 71.6318 31.7409C71.6278 31.7515 71.6264 31.7628 71.6279 31.774C72.3246 37.6742 72.7761 43.7895 73.5036 50.1199C74.1329 55.5999 74.8502 61.399 75.28 66.6136C75.2901 66.7908 75.282 66.9339 75.3084 67.0866C75.3063 67.0946 75.3028 67.102 75.2979 67.1084C75.293 67.1148 75.2869 67.12 75.28 67.1236C75.2732 67.1273 75.2657 67.1293 75.258 67.1296C75.2504 67.1299 75.2427 67.1284 75.2356 67.1253C75.0501 67.0405 74.7468 66.8699 74.3257 66.6136C73.477 66.0969 72.4782 65.6338 71.7045 65.2981C71.2973 65.1217 70.3932 64.761 68.9921 64.216C67.8105 63.7559 65.9562 63.2599 63.6994 62.7282C62.3672 62.4146 60.3027 62.0563 57.5058 61.6536C57.06 61.5896 56.2349 61.5047 55.0303 61.399C53.5465 61.27 52.7189 61.2002 52.5474 61.1893C51.6808 61.1361 50.0007 61.0876 47.5169 61.0192C45.8687 60.9742 44.0791 61.15 42.5166 61.1612C41.2855 61.1711 40.2716 61.337 38.9957 61.4481C38.3611 61.5034 37.8928 61.5531 37.5909 61.5972C36.3783 61.7772 35.1894 61.8841 33.9123 62.1414C31.7248 62.5802 30.0088 62.9753 28.7644 63.3269C28.4748 63.4085 27.5192 63.7258 25.8975 64.279C24.34 64.8092 22.6497 65.5925 21.4893 66.1564C20.863 66.4611 19.8283 67.0457 18.3854 67.9101C18.3308 67.9419 18.2667 67.9705 18.193 67.9958ZM49.1734 51.2469C49.1777 51.1826 49.2031 51.1215 49.2456 51.0732C49.2881 51.0249 49.3453 50.9921 49.4083 50.9798C50.197 50.8292 50.9368 50.6533 51.6278 50.4519C52.5606 50.1815 53.4864 49.6756 54.4052 48.9342C56.2171 47.4727 57.0944 45.4395 57.041 43.0906C57.0087 41.7139 56.5215 40.6368 55.7622 39.5247C55.029 38.4514 53.5639 37.4928 52.3808 37.0185C50.8266 36.3945 49.8602 36.0221 49.4816 35.9015C47.3963 35.2375 46.212 34.9305 44.7009 34.1828C44.1989 33.9341 43.7888 33.5746 43.4706 33.1045C43.1914 32.6901 43.0937 32.2321 43.1773 31.7303C43.3327 30.793 44.0535 30.1939 44.9233 29.9455C46.5828 29.4712 48.2534 29.4812 49.9352 29.9755C50.7131 30.2039 51.7595 30.7256 52.4119 31.0114C52.8477 31.2028 53.1894 31.3022 53.4371 31.3097C54.225 31.3322 55.1322 30.8978 55.4205 30.2251C56.1798 28.4553 55.2291 27.3345 53.6795 26.5632C52.9347 26.1921 52.3017 25.9354 51.7806 25.7931C51.1675 25.6258 50.3221 25.4557 49.2442 25.2826C49.2071 25.2764 49.1727 25.2589 49.1458 25.2326C49.1189 25.2062 49.1008 25.1723 49.0939 25.1353C49.0181 24.7085 49.0404 24.1493 48.9174 23.735C48.5819 22.6075 47.77 22.1407 46.4817 22.3346C45.4503 22.4893 44.9482 23.4516 44.8973 24.3815C44.8774 24.7517 44.8625 25.0251 44.8525 25.2015C44.8497 25.2487 44.8318 25.2937 44.8013 25.3299C44.7709 25.3661 44.7296 25.3915 44.6835 25.4024C44.2734 25.4989 43.8062 25.6188 43.2817 25.7619C41.5279 26.2436 40.0586 27.2009 38.8738 28.6338C37.2596 30.5833 37.144 33.4265 38.1618 35.6481C38.2637 35.8694 38.3958 36.0766 38.5582 36.2697C39.7562 37.69 41.1853 38.54 42.9027 39.2427C43.7345 39.5821 45.3177 40.1276 47.6523 40.8789C48.6962 41.2147 49.8196 41.6116 50.6224 42.3392C51.2338 42.8934 51.4488 43.7121 51.2549 44.4947C51.0735 45.2261 50.4422 45.8751 49.7649 46.1509C47.3081 47.1544 44.3554 46.77 41.9794 45.6517C41.508 45.4295 41.0917 45.2381 40.7305 45.0775C39.9351 44.7218 39.4206 44.6445 38.6937 45.0788C37.5914 45.739 37.1949 47.8533 38.3121 48.7145C39.8369 49.889 41.8899 50.6004 43.7527 50.8787C44.1769 50.942 44.4959 50.994 44.7096 51.0347C44.7476 51.0418 44.7822 51.0613 44.8079 51.09C44.8335 51.1187 44.8488 51.155 44.8513 51.1933C44.867 51.4104 44.8749 51.6933 44.8749 52.042C44.8761 54.7179 48.8528 54.9438 49.0877 52.2991C49.1324 51.7907 49.161 51.44 49.1734 51.2469Z" fill="#FF4000"/>
<path d="M46.5012 95C46.5087 95 46.5155 95 46.5213 95C48.3834 94.9596 50.5061 94.9293 52.3531 94.7891C54.6907 94.6124 57.0392 94.3552 59.3986 94.0177C61.3005 93.7458 63.1735 93.3712 65.0176 92.8939C66.1003 92.6136 67.3786 92.1869 68.8525 91.6136C70.6227 90.9259 72.2485 90.0227 73.7299 88.904C76.9505 86.471 78.0962 82.1654 77.2111 78.3674C76.3953 74.8725 74.1908 72.2058 71.1666 70.346C69.7003 69.4444 68.1508 68.6877 66.5183 68.0758C65.5526 67.7146 64.621 67.3649 63.6691 67.0972C60.9304 66.327 58.1215 65.7925 55.2425 65.4937C53.3985 65.3026 52.1697 65.1919 51.5561 65.1616C49.7167 65.0707 48.3532 65 46.4987 65C44.6454 65 43.2806 65.0707 41.4412 65.1616C40.8285 65.1928 39.6001 65.3039 37.756 65.4949C34.8771 65.7938 32.0682 66.3287 29.3294 67.0997C28.3776 67.3674 27.446 67.7172 26.4803 68.0783C24.8478 68.6902 23.2983 69.447 21.832 70.3485C18.8078 72.2096 16.6046 74.8763 15.7887 78.3712C14.9036 82.1692 16.0506 86.4747 19.2711 88.9078C20.7526 90.0265 22.3784 90.9293 24.1486 91.6162C25.6225 92.1894 26.9008 92.6162 27.9836 92.8965C29.8276 93.3737 31.701 93.7479 33.6038 94.0189C35.9632 94.3565 38.3117 94.6136 40.6493 94.7904C42.4962 94.9293 44.6189 94.9596 46.481 95C46.4869 95 46.4936 95 46.5012 95ZM34.7562 87.4656C34.1566 87.4593 33.5644 87.3013 33.0135 87.0007C32.4626 86.7001 31.9637 86.2628 31.5454 85.7136C31.1271 85.1645 30.7975 84.5143 30.5754 83.8002C30.3534 83.0861 30.2433 82.3221 30.2513 81.5518C30.2593 80.7815 30.3854 80.02 30.6223 79.3107C30.8592 78.6014 31.2023 77.9583 31.632 77.4181C32.0617 76.8778 32.5696 76.451 33.1267 76.1621C33.6838 75.8731 34.2791 75.7276 34.8787 75.7339C35.4784 75.7402 36.0706 75.8982 36.6215 76.1988C37.1724 76.4994 37.6713 76.9367 38.0896 77.4859C38.5079 78.035 38.8375 78.6852 39.0596 79.3993C39.2816 80.1134 39.3917 80.8774 39.3837 81.6477C39.3757 82.418 39.2496 83.1795 39.0127 83.8888C38.7758 84.5981 38.4327 85.2412 38.003 85.7814C37.5733 86.3217 37.0654 86.7485 36.5083 87.0374C35.9512 87.3264 35.3559 87.4719 34.7562 87.4656ZM58.3304 87.4542C57.7344 87.4605 57.1427 87.3151 56.5889 87.0264C56.0352 86.7377 55.5304 86.3114 55.1033 85.7717C54.6762 85.232 54.3351 84.5896 54.0996 83.8811C53.8641 83.1726 53.7388 82.4118 53.7307 81.6424C53.7227 80.8729 53.8321 80.1097 54.0528 79.3964C54.2734 78.6831 54.601 78.0336 55.0167 77.4851C55.4325 76.9366 55.9283 76.4997 56.4759 76.1994C57.0234 75.8992 57.612 75.7414 58.208 75.7352C58.804 75.7289 59.3958 75.8743 59.9495 76.163C60.5032 76.4516 61.008 76.878 61.4352 77.4177C61.8623 77.9574 62.2033 78.5998 62.4388 79.3083C62.6743 80.0168 62.7997 80.7775 62.8077 81.547C62.8158 82.3165 62.7063 83.0797 62.4857 83.793C62.265 84.5063 61.9375 85.1558 61.5217 85.7043C61.1059 86.2528 60.6101 86.6897 60.0626 86.99C59.515 87.2902 58.9264 87.448 58.3304 87.4542Z" fill="#FF4000"/>
<path d="M139.146 95.96C133.386 95.96 128.479 94.7067 124.426 92.2C120.372 89.6933 117.279 86.28 115.146 81.96C113.012 77.5867 111.946 72.6267 111.946 67.08C111.946 61.5333 112.986 56.5733 115.066 52.2C117.146 47.8267 120.212 44.3867 124.266 41.88C128.319 39.32 133.279 38.04 139.146 38.04C145.866 38.04 151.359 39.72 155.626 43.08C159.946 46.3867 162.639 51.0533 163.706 57.08H152.426C151.732 54.04 150.239 51.6667 147.946 49.96C145.706 48.2 142.719 47.32 138.986 47.32C135.572 47.32 132.612 48.12 130.106 49.72C127.652 51.32 125.759 53.5867 124.426 56.52C123.092 59.4533 122.426 62.9733 122.426 67.08C122.426 71.1333 123.092 74.6533 124.426 77.64C125.759 80.5733 127.652 82.84 130.106 84.44C132.612 85.9867 135.572 86.76 138.986 86.76C142.719 86.76 145.706 85.96 147.946 84.36C150.239 82.7067 151.732 80.44 152.426 77.56H163.706C162.639 83.32 159.946 87.8267 155.626 91.08C151.359 94.3333 145.866 95.96 139.146 95.96ZM179.213 95.96C176.866 95.96 174.68 95.48 172.653 94.52C170.626 93.56 168.973 92.2 167.693 90.44C166.466 88.6267 165.853 86.4933 165.853 84.04C165.853 81.1067 166.573 78.7067 168.013 76.84C169.453 74.9733 171.426 73.5867 173.933 72.68C176.493 71.7733 179.346 71.32 182.493 71.32H191.933C191.933 69.5067 191.64 67.9867 191.053 66.76C190.52 65.5333 189.693 64.6 188.573 63.96C187.506 63.2667 186.173 62.92 184.573 62.92C182.706 62.92 181.026 63.3467 179.533 64.2C178.093 65 177.213 66.36 176.893 68.28H166.653C166.92 65.4 167.906 62.92 169.613 60.84C171.32 58.76 173.506 57.16 176.173 56.04C178.84 54.92 181.693 54.36 184.733 54.36C188.466 54.36 191.613 55.0533 194.173 56.44C196.786 57.8267 198.786 59.8 200.173 62.36C201.56 64.8667 202.253 67.8533 202.253 71.32V83.4C202.36 84.5733 202.786 85.3733 203.533 85.8C204.28 86.2267 205.266 86.44 206.493 86.44V95C203.986 95 201.88 94.76 200.173 94.28C198.52 93.8 197.16 93.1067 196.093 92.2C195.026 91.24 194.12 90.04 193.373 88.6C192.146 90.68 190.226 92.44 187.613 93.88C185.053 95.2667 182.253 95.96 179.213 95.96ZM182.173 87.72C183.933 87.72 185.533 87.32 186.973 86.52C188.466 85.72 189.666 84.6 190.573 83.16C191.48 81.72 191.933 80.0667 191.933 78.2V77.88H183.133C181.96 77.88 180.84 78.0667 179.773 78.44C178.706 78.76 177.853 79.2933 177.213 80.04C176.573 80.7333 176.253 81.6933 176.253 82.92C176.253 84.5733 176.813 85.8 177.933 86.6C179.106 87.3467 180.52 87.72 182.173 87.72ZM224.643 95.96C221.656 95.96 218.856 95.4267 216.243 94.36C213.63 93.24 211.47 91.6667 209.763 89.64C208.11 87.6133 207.203 85.24 207.043 82.52H217.283C217.55 84.2267 218.376 85.56 219.763 86.52C221.203 87.48 222.803 87.96 224.563 87.96C226.056 87.96 227.443 87.64 228.723 87C230.056 86.3067 230.723 85.24 230.723 83.8C230.723 82.68 230.243 81.8 229.283 81.16C228.323 80.52 227.203 80.0133 225.923 79.64C224.643 79.2667 223.47 78.9467 222.403 78.68C219.736 78.04 217.31 77.2933 215.123 76.44C212.936 75.5333 211.203 74.3067 209.923 72.76C208.643 71.16 208.003 69.0533 208.003 66.44C208.003 63.88 208.723 61.6933 210.163 59.88C211.656 58.0667 213.603 56.7067 216.003 55.8C218.456 54.84 221.096 54.36 223.923 54.36C228.35 54.36 232.083 55.48 235.123 57.72C238.163 59.96 239.816 63.2667 240.083 67.64H230.403C230.243 65.9333 229.523 64.6533 228.243 63.8C227.016 62.8933 225.47 62.44 223.603 62.44C222.11 62.44 220.776 62.7067 219.603 63.24C218.43 63.7733 217.843 64.7867 217.843 66.28C217.843 67.3467 218.323 68.2267 219.283 68.92C220.243 69.56 221.39 70.0933 222.723 70.52C224.056 70.8933 225.23 71.2133 226.243 71.48C229.016 72.1733 231.443 72.9733 233.523 73.88C235.656 74.7867 237.336 76.0133 238.563 77.56C239.79 79.1067 240.43 81.1867 240.483 83.8C240.483 86.4133 239.736 88.6267 238.243 90.44C236.803 92.2533 234.883 93.64 232.483 94.6C230.083 95.5067 227.47 95.96 224.643 95.96ZM243.894 95V39H254.054V59.96C255.44 58.0933 257.28 56.7067 259.574 55.8C261.92 54.84 264.267 54.36 266.614 54.36C271.2 54.36 274.96 55.8533 277.894 58.84C280.827 61.7733 282.294 66.04 282.294 71.64V95H272.134V73C272.134 70.0133 271.36 67.6133 269.814 65.8C268.32 63.9333 266.107 63 263.174 63C260.24 63 257.974 63.9333 256.374 65.8C254.827 67.6133 254.054 70.0133 254.054 73V95H243.894ZM329.333 95.96C323.573 95.96 318.666 94.7067 314.613 92.2C310.56 89.6933 307.466 86.28 305.333 81.96C303.2 77.5867 302.133 72.6267 302.133 67.08C302.133 61.5333 303.173 56.5733 305.253 52.2C307.333 47.8267 310.4 44.3867 314.453 41.88C318.506 39.32 323.466 38.04 329.333 38.04C336.053 38.04 341.546 39.72 345.813 43.08C350.133 46.3867 352.826 51.0533 353.893 57.08H342.613C341.92 54.04 340.426 51.6667 338.133 49.96C335.893 48.2 332.906 47.32 329.173 47.32C325.76 47.32 322.8 48.12 320.293 49.72C317.84 51.32 315.946 53.5867 314.613 56.52C313.28 59.4533 312.613 62.9733 312.613 67.08C312.613 71.1333 313.28 74.6533 314.613 77.64C315.946 80.5733 317.84 82.84 320.293 84.44C322.8 85.9867 325.76 86.76 329.173 86.76C332.906 86.76 335.893 85.96 338.133 84.36C340.426 82.7067 341.92 80.44 342.613 77.56H353.893C352.826 83.32 350.133 87.8267 345.813 91.08C341.546 94.3333 336.053 95.96 329.333 95.96ZM377.773 95.96C373.773 95.96 370.199 95.1067 367.053 93.4C363.959 91.64 361.533 89.1867 359.773 86.04C358.013 82.8933 357.133 79.2667 357.133 75.16C357.133 70.84 358.066 67.1333 359.933 64.04C361.853 60.8933 364.386 58.4933 367.533 56.84C370.733 55.1867 374.253 54.36 378.093 54.36C382.093 54.36 385.666 55.24 388.813 57C391.959 58.7067 394.439 61.1067 396.253 64.2C398.119 67.2933 399.053 70.9467 399.053 75.16C399.053 79.16 398.146 82.7333 396.333 85.88C394.519 89.0267 392.013 91.5067 388.813 93.32C385.666 95.08 381.986 95.96 377.773 95.96ZM377.933 87.08C380.066 87.08 381.906 86.5467 383.453 85.48C385.053 84.36 386.306 82.8933 387.213 81.08C388.119 79.2133 388.573 77.1867 388.573 75C388.573 72.4933 388.066 70.36 387.053 68.6C386.093 66.84 384.813 65.5067 383.213 64.6C381.613 63.6933 379.853 63.24 377.933 63.24C375.853 63.24 374.013 63.7467 372.413 64.76C370.866 65.7733 369.639 67.1867 368.733 69C367.879 70.76 367.453 72.8133 367.453 75.16C367.453 77.5067 367.906 79.5867 368.813 81.4C369.773 83.2133 371.053 84.6267 372.653 85.64C374.253 86.6 376.013 87.08 377.933 87.08ZM409.169 95L397.329 55.32H407.649L414.769 85.48L422.449 55.32H433.249L440.769 85.4L447.889 55.32H457.649L445.889 94.92H434.929L427.569 67.24L420.209 95H409.169Z" fill="white"/>
</svg>
